<svg viewBox="0 0 50 50" fill="none" xmlns="http://www.w3.org/2000/svg">
<path d="M38.6911 11.3829L31.5946 4.28435C31.3623 4.05008 31.0859 3.86413 30.7814 3.73723C30.477 3.61034 30.1504 3.54501 29.8205 3.54501C29.4906 3.54501 29.164 3.61034 28.8595 3.73723C28.555 3.86413 28.2787 4.05008 28.0464 4.28435C27.581 4.75266 27.3197 5.38616 27.3197 6.04649C27.3197 6.70682 27.581 7.34031 28.0464 7.80862L33.3437 13.1075L13.1038 33.3534L7.80637 28.0545C7.33819 27.5889 6.70488 27.3276 6.04474 27.3276C5.3846 27.3276 4.75129 27.5889 4.28311 28.0545C4.04891 28.2868 3.86301 28.5633 3.73615 28.8679C3.60929 29.1724 3.54398 29.4991 3.54398 29.8291C3.54398 30.1591 3.60929 30.4858 3.73615 30.7903C3.86301 31.0949 4.04891 31.3714 4.28311 31.6037L11.3046 38.6273L18.3262 45.6508C18.5576 45.887 18.8336 46.0749 19.1381 46.2036C19.4426 46.3323 19.7697 46.3993 20.1003 46.4007C20.5966 46.4036 21.0825 46.2586 21.4961 45.9841C21.9097 45.7097 22.2322 45.3182 22.4226 44.8597C22.6129 44.4012 22.6624 43.8964 22.5648 43.4096C22.4671 42.9228 22.2268 42.4762 21.8744 42.1266L16.652 36.9026L36.892 16.6568L42.1894 21.9557C42.4223 22.1871 42.6986 22.3704 43.0024 22.495C43.3062 22.6196 43.6315 22.6831 43.9598 22.682C44.2882 22.6808 44.613 22.615 44.9159 22.4882C45.2188 22.3615 45.4938 22.1763 45.7251 21.9432C45.9565 21.7102 46.1396 21.4338 46.2642 21.13C46.3888 20.8261 46.4523 20.5007 46.4512 20.1722C46.45 19.8438 46.3842 19.5189 46.2575 19.2159C46.1307 18.9129 45.9456 18.6379 45.7126 18.4064L38.6911 11.3829ZM4.28311 38.6523C3.81258 38.1816 3.17441 37.9172 2.50899 37.9172C1.84356 37.9172 1.20539 38.1816 0.734866 38.6523C0.264339 39.1229 4.9578e-09 39.7613 0 40.4269C-4.9578e-09 41.0925 0.264339 41.7309 0.734866 42.2016L7.80637 49.2751C8.03985 49.5068 8.31676 49.69 8.6212 49.8144C8.92564 49.9388 9.25164 50.0019 9.58049 50C9.90935 50.0019 10.2353 49.9388 10.5398 49.8144C10.8442 49.69 11.1211 49.5068 11.3546 49.2751C11.5888 49.0427 11.7747 48.7663 11.9016 48.4617C12.0284 48.1571 12.0937 47.8304 12.0937 47.5005C12.0937 47.1705 12.0284 46.8438 11.9016 46.5392C11.7747 46.2346 11.5888 45.9582 11.3546 45.7258L4.28311 38.6523ZM49.2609 7.80862L42.1894 0.735078C41.9564 0.502029 41.6798 0.317165 41.3754 0.19104C41.071 0.0649155 40.7447 0 40.4152 0C40.0858 0 39.7595 0.0649155 39.4551 0.19104C39.1507 0.317165 38.8741 0.502029 38.6411 0.735078C38.4081 0.968126 38.2233 1.2448 38.0972 1.54929C37.9712 1.85378 37.9063 2.18013 37.9063 2.50971C37.9063 2.83929 37.9712 3.16565 38.0972 3.47014C38.2233 3.77463 38.4081 4.0513 38.6411 4.28435L45.7126 11.3579C45.9449 11.5922 46.2213 11.7781 46.5258 11.905C46.8303 12.0319 47.1569 12.0972 47.4867 12.0972C47.8166 12.0972 48.1432 12.0319 48.4477 11.905C48.7522 11.7781 49.0286 11.5922 49.2609 11.3579C49.4951 11.1255 49.681 10.8491 49.8078 10.5445C49.9347 10.2399 50 9.91322 50 9.58326C50 9.2533 49.9347 8.9266 49.8078 8.62202C49.681 8.31743 49.4951 8.04098 49.2609 7.80862Z" fill="currentColor"/>
</svg>
