<svg viewBox="0 0 40 50" fill="none" xmlns="http://www.w3.org/2000/svg">
<path d="M32.5 17.5V12.5C32.5 9.18479 31.183 6.00537 28.8388 3.66117C26.4946 1.31696 23.3152 0 20 0C16.6848 0 13.5054 1.31696 11.1612 3.66117C8.81696 6.00537 7.5 9.18479 7.5 12.5V17.5C5.51088 17.5 3.60322 18.2902 2.1967 19.6967C0.790177 21.1032 0 23.0109 0 25V42.5C0 44.4891 0.790177 46.3968 2.1967 47.8033C3.60322 49.2098 5.51088 50 7.5 50H32.5C34.4891 50 36.3968 49.2098 37.8033 47.8033C39.2098 46.3968 40 44.4891 40 42.5V25C40 23.0109 39.2098 21.1032 37.8033 19.6967C36.3968 18.2902 34.4891 17.5 32.5 17.5ZM12.5 12.5C12.5 10.5109 13.2902 8.60322 14.6967 7.1967C16.1032 5.79018 18.0109 5 20 5C21.9891 5 23.8968 5.79018 25.3033 7.1967C26.7098 8.60322 27.5 10.5109 27.5 12.5V17.5H12.5V12.5ZM35 42.5C35 43.163 34.7366 43.7989 34.2678 44.2678C33.7989 44.7366 33.163 45 32.5 45H7.5C6.83696 45 6.20107 44.7366 5.73223 44.2678C5.26339 43.7989 5 43.163 5 42.5V25C5 24.337 5.26339 23.7011 5.73223 23.2322C6.20107 22.7634 6.83696 22.5 7.5 22.5H32.5C33.163 22.5 33.7989 22.7634 34.2678 23.2322C34.7366 23.7011 35 24.337 35 25V42.5Z" fill="currentColor"/>
</svg>
